<?xml version="1.0" standalone="no"?>
<!DOCTYPE svg PUBLIC "-//W3C//DTD SVG 20010904//EN"
 "http://www.w3.org/TR/2001/REC-SVG-20010904/DTD/svg10.dtd">
<svg version="1.0" xmlns="http://www.w3.org/2000/svg"
 width="378.000000pt" height="345.000000pt" viewBox="0 0 378.000000 345.000000"
 preserveAspectRatio="xMidYMid meet">

<g transform="translate(0.000000,345.000000) scale(0.100000,-0.100000)"
fill="#000000" stroke="none">
<path d="M1605 3150 c-454 -92 -837 -439 -978 -886 -75 -236 -77 -531 -6 -769
40 -136 115 -286 197 -397 l35 -46 46 20 c25 11 80 27 121 37 l74 17 -40 44
c-314 344 -386 904 -172 1335 169 340 509 592 888 658 14 2 3 5 -25 5 -27 0
-90 -8 -140 -18z"/>
<path d="M1688 2804 c-35 -18 -37 -29 -40 -187 -3 -127 -3 -129 -31 -153 -26
-23 -36 -24 -152 -24 -68 0 -135 -4 -150 -10 -46 -18 -57 -64 -53 -236 3 -153
3 -154 31 -181 27 -28 30 -28 167 -31 l139 -4 26 -30 c24 -28 25 -35 25 -161
1 -188 0 -187 230 -187 l162 0 29 29 29 29 0 135 c0 187 -6 180 183 187 137 5
147 7 171 29 26 24 26 25 26 197 0 95 -3 180 -6 189 -14 34 -58 45 -193 45
l-129 0 -26 31 c-25 29 -26 36 -26 154 0 134 -8 166 -47 184 -38 17 -331 14
-365 -5z"/>
<path d="M3172 1809 c-1 -15 -5 -42 -8 -60 -4 -28 -3 -31 6 -16 6 9 9 36 7 60
-2 23 -4 30 -5 16z"/>
</g>
</svg>
